<svg width="174" height="163" version="1.1" xmlns="http://www.w3.org/2000/svg" desc="Created with imagetracer.js version 1.2.6" ><path fill="rgb(229,227,223)" stroke="rgb(229,227,223)" stroke-width="1" opacity="1" d="M 95 0 L 100 0.5 L 99 3 L 96.5 2 L 95.5 4 L 95 0 Z " /><path fill="rgb(229,227,223)" stroke="rgb(229,227,223)" stroke-width="1" opacity="1" d="M 107.5 0 Q 109.8 -0.8 109 1.5 L 109.5 3 Q 107.3 3.8 108 1.5 L 107.5 0 Z " /><path fill="rgb(229,227,223)" stroke="rgb(229,227,223)" stroke-width="1" opacity="1" d="M 116 0 L 126 0.5 L 123 1.5 L 123.5 3 L 116 3 L 116 0 Z " /><path fill="rgb(229,227,223)" stroke="rgb(229,227,223)" stroke-width="1" opacity="1" d="M 90.5 2 L 89.5 4 L 90.5 2 Z " /><path fill="rgb(229,227,223)" stroke="rgb(229,227,223)" stroke-width="1" opacity="1" d="M 162.5 2 Q 164.8 1.3 164 3.5 L 162.5 2 Z " /><path fill="rgb(229,227,223)" stroke="rgb(229,227,223)" stroke-width="1" opacity="1" d="M 166 2 L 171 3 L 172 8 L 170 8.5 L 174 9 L 173 13.5 L 174 16.5 L 173.5 24 L 171 22.5 L 170 29.5 L 171 32 Q 174.8 30.5 174 33.5 Q 172.8 36.3 171.5 34 Q 167.3 35.3 169 30.5 L 166.5 25 L 165.5 30 L 163 26.5 Q 165.3 25.3 162.5 24 Q 159.8 25.3 162 26.5 Q 163.1 29.8 160.5 29 L 155.5 30 L 155.5 29 L 159 27.5 L 159 26 L 152.5 26 L 152 24.5 L 149 18.5 L 151.5 18 L 164.5 20 L 164.5 18 Q 165.8 20.3 167 17.5 Q 168.1 14.2 165.5 15 L 159 9.5 L 159 8 L 163 8 L 163 6.5 L 161.5 4 L 166 6 L 166 2 Z M 162 20 L 161 23 L 162 23 L 162 20 Z " /><path fill="rgb(229,227,223)" stroke="rgb(229,227,223)" stroke-width="1" opacity="1" d="M 104.5 4 L 106.5 5 L 108.5 4 L 112.5 6 L 117.5 4 L 118 6.5 Q 119.1 9.8 116.5 9 L 112 8 Q 113.4 4 106.5 6 L 104.5 4 Z " /><path fill="rgb(229,227,223)" stroke="rgb(229,227,223)" stroke-width="1" opacity="1" d="M 93.5 5 L 95 5.5 L 92.5 7 L 93.5 5 Z " /><path fill="rgb(229,227,223)" stroke="rgb(229,227,223)" stroke-width="1" opacity="1" d="M 46.5 12 L 49 12.5 L 48 15 L 43 17 L 40.5 23 L 40 21.5 Q 43.3 19.8 42.5 14 L 43.5 15 L 46.5 12 Z " /><path fill="rgb(229,227,223)" stroke="rgb(229,227,223)" stroke-width="1" opacity="1" d="M 131.5 14 L 132.5 16 Q 134.3 12.3 136 15.5 L 139 21.5 L 137 24.5 L 137.5 26 Q 134.9 26.8 136 23.5 L 137 21.5 L 135 21.5 L 136 19.5 L 134.5 16 L 132.5 17 L 131.5 14 Z " /><path fill="rgb(229,227,223)" stroke="rgb(229,227,223)" stroke-width="1" opacity="1" d="M 36.5 18 L 37 20.5 L 36 20.5 L 36.5 18 Z " /><path fill="rgb(229,227,223)" stroke="rgb(229,227,223)" stroke-width="1" opacity="1" d="M 81.5 21 L 92.5 21 L 105 27 Q 103.9 29.7 106.5 29 Q 111.1 31.9 112 38.5 L 111 38.5 Q 109.2 31.3 103.5 28 Q 97.1 21.4 83.5 22 Q 70 24.5 64 34.5 L 62.5 38 L 62 35.5 L 69.5 27 L 81.5 21 Z " /><path fill="rgb(229,227,223)" stroke="rgb(229,227,223)" stroke-width="1" opacity="1" d="M 66.5 22 L 68 22.5 L 67 25 Q 64.3 26.1 65 23.5 L 66.5 22 Z " /><path fill="rgb(229,227,223)" stroke="rgb(229,227,223)" stroke-width="1" opacity="1" d="M 33.5 23 L 33.5 26 Q 31.3 26.8 32 24.5 L 33.5 23 Z " /><path fill="rgb(229,227,223)" stroke="rgb(229,227,223)" stroke-width="1" opacity="1" d="M 35.5 27 L 36.5 29 L 35.5 27 Z " /><path fill="rgb(229,227,223)" stroke="rgb(229,227,223)" stroke-width="1" opacity="1" d="M 139.5 27 L 144.5 29 L 146 28.5 L 141.5 32 L 139 29.5 L 139.5 27 Z " /><path fill="rgb(229,227,223)" stroke="rgb(229,227,223)" stroke-width="1" opacity="1" d="M 75.5 30 L 77 34 Q 72.9 35.7 74 31.5 L 75.5 30 Z " /><path fill="rgb(229,227,223)" stroke="rgb(229,227,223)" stroke-width="1" opacity="1" d="M 156.5 32 L 159 33.5 L 160.5 36 L 163 37.5 L 164 39.5 L 161.5 40 Q 159.3 39.3 160 41.5 L 162 41.5 L 163 44.5 L 161.5 47 L 158.5 40 L 157.5 42 L 154 37.5 L 156.5 32 Z " /><path fill="rgb(229,227,223)" stroke="rgb(229,227,223)" stroke-width="1" opacity="1" d="M 55.5 34 Q 59.3 33.3 60 35.5 Q 60.8 37.8 58.5 37 L 55.5 34 Z " /><path fill="rgb(229,227,223)" stroke="rgb(229,227,223)" stroke-width="1" opacity="1" d="M 49.5 35 L 52 35.5 L 48 38 L 49.5 35 Z " /><path fill="rgb(229,227,223)" stroke="rgb(229,227,223)" stroke-width="1" opacity="1" d="M 72.5 39 L 74.5 40 L 75.5 39 L 93.5 39 Q 94.7 41.2 99.5 40 L 101.5 40 L 104 41.5 L 105 43.5 L 105 61.5 L 101.5 66 L 99.5 67 L 73.5 67 L 69 62.5 L 69 42.5 L 72.5 39 Z M 73 41 L 70 45 L 70 60 L 71 63 L 75 65 L 100 65 L 104 61 L 104 45 L 101 41 L 73 41 Z " /><path fill="rgb(229,227,223)" stroke="rgb(229,227,223)" stroke-width="1" opacity="1" d="M 112.5 40 L 114.5 43 Q 120.8 41.8 122 45.5 L 121.5 47 L 119.5 44 Q 113.5 45.5 112 42.5 L 112.5 40 Z " /><path fill="rgb(229,227,223)" stroke="rgb(229,227,223)" stroke-width="1" opacity="1" d="M 60.5 42 L 61 44 L 54.5 44 L 53 45.5 L 52 47.5 L 52 68.5 L 54.5 72 Q 60.5 73 62.5 70 L 68 77.5 L 66.5 77 Q 64.3 77.8 65 75.5 L 61.5 72 L 60.5 73 L 56.5 74 L 53.5 73 L 52 73.5 L 51 68.5 L 51 47.5 L 53.5 43 Q 59 44.5 60.5 42 Z " /><path fill="rgb(229,227,223)" stroke="rgb(229,227,223)" stroke-width="1" opacity="1" d="M 163.5 42 L 164.5 44 L 163.5 42 Z " /><path fill="rgb(229,227,223)" stroke="rgb(229,227,223)" stroke-width="1" opacity="1" d="M 46 51 Q 49 49.8 48 53.5 L 46 52.5 L 46 51 Z " /><path fill="rgb(229,227,223)" stroke="rgb(229,227,223)" stroke-width="1" opacity="1" d="M 170.5 52 L 174 56.5 L 174 63.5 L 174 65.5 Q 175.5 69.9 172.5 69 L 170 64.5 L 172 61.5 L 171 59.5 L 171 57.5 L 170.5 52 Z " /><path fill="rgb(229,227,223)" stroke="rgb(229,227,223)" stroke-width="1" opacity="1" d="M 36 59 Q 40.1 57.7 39 61 Q 34.9 62.3 36 59 Z " /><path fill="rgb(229,227,223)" stroke="rgb(229,227,223)" stroke-width="1" opacity="1" d="M 43 62 Q 46 61 45 64 Q 42 65 43 62 Z " /><path fill="rgb(229,227,223)" stroke="rgb(229,227,223)" stroke-width="1" opacity="1" d="M 47 62 L 50 63.5 L 49.5 67 L 47 62 Z " /><path fill="rgb(229,227,223)" stroke="rgb(229,227,223)" stroke-width="1" opacity="1" d="M 156.5 63 L 158 63.5 L 157 65.5 L 157.5 67 L 151 68 L 152.5 64 L 156.5 63 Z " /><path fill="rgb(229,227,223)" stroke="rgb(229,227,223)" stroke-width="1" opacity="1" d="M 121.5 69 L 122 70.5 L 121 73 L 116.5 74 L 111.5 72 L 106.5 78 L 109 74.5 L 111.5 70 Q 112.8 73.3 118.5 72 L 121 71 L 121.5 69 Z " /><path fill="rgb(229,227,223)" stroke="rgb(229,227,223)" stroke-width="1" opacity="1" d="M 171.5 71 L 172 75 Q 175.3 73.7 174 78.5 L 172 80.5 Q 172.8 85.3 170.5 87 Q 167.8 85.8 170 84.5 L 172 75.5 L 171.5 71 Z " /><path fill="rgb(229,227,223)" stroke="rgb(229,227,223)" stroke-width="1" opacity="1" d="M 173.5 71 L 174 73.5 L 173 73.5 L 173.5 71 Z " /><path fill="rgb(229,227,223)" stroke="rgb(229,227,223)" stroke-width="1" opacity="1" d="M 150.5 72 L 156 75.5 L 155 77.5 L 156 80 L 151 80 L 151 81.5 L 150 81.5 Q 149.3 76.8 152.5 76 L 153.5 79 L 154 75.5 L 152.5 74 Q 150.8 77.8 149 74.5 L 150.5 72 Z " /><path fill="rgb(229,227,223)" stroke="rgb(229,227,223)" stroke-width="1" opacity="1" d="M 69.5 78 L 73 80.5 L 71.5 81 L 69 80 L 69.5 78 Z " /><path fill="rgb(229,227,223)" stroke="rgb(229,227,223)" stroke-width="1" opacity="1" d="M 104.5 78 L 103.5 80 L 100.5 81 L 100.5 80 L 104.5 78 Z " /><path fill="rgb(229,227,223)" stroke="rgb(229,227,223)" stroke-width="1" opacity="1" d="M 75.5 81 L 78 83.5 L 78 93.5 L 81 96.5 Q 79.8 101.8 82.5 103 Q 91 105 93 100.5 L 93 95.5 L 95 95 L 95 93.5 L 96 92.5 L 96 82.5 L 97.5 81 L 97 82.5 L 97 93.5 L 94 96.5 Q 94.8 102.3 91.5 104 L 83 105.5 L 84 107.5 L 82.5 107 L 80 105.5 Q 79.3 103.3 81.5 104 L 81.5 103 L 79 101.5 L 80 96 Q 77.3 97.1 78 94.5 L 77 93.5 L 77 84.5 L 75.5 81 Z " /><path fill="rgb(229,227,223)" stroke="rgb(229,227,223)" stroke-width="1" opacity="1" d="M 64.5 84 L 65.5 86 L 63 85.5 L 64.5 84 Z " /><path fill="rgb(229,227,223)" stroke="rgb(229,227,223)" stroke-width="1" opacity="1" d="M 150.5 87 Q 153.3 88.4 152 93 L 148 93.5 L 148.5 95 Q 145.8 93.8 148 92.5 L 148.5 90 L 150 90.5 L 150.5 87 Z " /><path fill="rgb(229,227,223)" stroke="rgb(229,227,223)" stroke-width="1" opacity="1" d="M 70.5 91 Q 73.8 89.9 73 92.5 L 74 96 L 69 92.5 L 70.5 91 Z " /><path fill="rgb(229,227,223)" stroke="rgb(229,227,223)" stroke-width="1" opacity="1" d="M 161.5 93 L 162.5 95 L 161.5 93 Z " /><path fill="rgb(229,227,223)" stroke="rgb(229,227,223)" stroke-width="1" opacity="1" d="M 164.5 95 L 163.5 97 L 162 96.5 L 164.5 95 Z " /><path fill="rgb(229,227,223)" stroke="rgb(229,227,223)" stroke-width="1" opacity="1" d="M 59.5 96 Q 59.5 102 64 103.5 Q 60.9 105.3 62.5 107 Q 59.2 105.9 60 108.5 L 58 107.5 L 54 98 L 59.5 96 Z " /><path fill="rgb(229,227,223)" stroke="rgb(229,227,223)" stroke-width="1" opacity="1" d="M 147.5 96 L 150 96.5 L 149 98.5 L 149.5 100 Q 144.7 101.7 146 97.5 L 147.5 96 Z " /><path fill="rgb(229,227,223)" stroke="rgb(229,227,223)" stroke-width="1" opacity="1" d="M 171 96 Q 173.7 94.9 173 97.5 L 174 101 L 170 103.5 L 171.5 104 L 174 102.5 L 173 105.5 L 173.5 107 L 172 107.5 L 174 110.5 L 171.5 112 L 170.5 110 Q 172.8 110.8 172 108.5 L 170.5 109 L 166 110 L 165 105.5 L 167 101 L 163 100.5 L 165.5 97 L 169.5 99 L 171 96 Z M 169 104 L 168 105 Q 165 104 166 107 L 169 108 L 170 105 L 169 104 Z " /><path fill="rgb(229,227,223)" stroke="rgb(229,227,223)" stroke-width="1" opacity="1" d="M 64.5 100 L 67 101.5 L 65.5 101 L 64.5 100 Z " /><path fill="rgb(229,227,223)" stroke="rgb(229,227,223)" stroke-width="1" opacity="1" d="M 146.5 102 L 147.5 104 Q 145.3 103.3 146 105.5 L 145 105.5 L 146.5 102 Z " /><path fill="rgb(229,227,223)" stroke="rgb(229,227,223)" stroke-width="1" opacity="1" d="M 78 109 L 82 110 Q 80.9 112.7 83.5 112 L 86.5 114 L 94.5 110 L 97.5 112 Q 99 108.5 105.5 110 L 106.5 112 L 105.5 111 L 99 111 Q 100.7 116.2 97 115 L 94.5 111 L 91 112.5 L 88.5 116 Q 86.8 113.2 81.5 114 L 76.5 117 L 75 114.5 L 76.5 115 L 80 112.5 L 78 109 Z " /><path fill="rgb(229,227,223)" stroke="rgb(229,227,223)" stroke-width="1" opacity="1" d="M 41.5 110 Q 47.5 108.5 49 111.5 L 47.5 111 Q 42.3 109.8 41 112.5 L 36 128 L 41 128.5 L 36.5 129 Q 34.3 128.3 35 124.5 L 41.5 110 Z " /><path fill="rgb(229,227,223)" stroke="rgb(229,227,223)" stroke-width="1" opacity="1" d="M 54.5 110 L 60.5 111 L 61.5 110 L 71.5 110 L 72.5 112 L 71.5 111 L 61 111 L 61 128 L 72.5 128 L 77 125 L 78.5 128 L 85 129.5 L 81.5 130 L 74.5 127 L 72.5 129 L 60.5 129 L 58.5 129 L 48.5 129 L 47 127.5 Q 47.9 124.5 43.5 126 L 42 126.5 L 42.5 125 L 48 125 L 48.5 128 L 59 128 L 60 125.5 L 60 113.5 L 59 111 L 54 111 L 54 122.5 L 52 121.5 L 51 118.5 Q 53.3 117.3 52 112.5 L 54.5 110 Z " /><path fill="rgb(229,227,223)" stroke="rgb(229,227,223)" stroke-width="1" opacity="1" d="M 109.5 110 L 115 110.5 Q 110.4 109.9 109 112.5 L 108.5 116 L 107 113.5 L 109.5 110 Z " /><path fill="rgb(229,227,223)" stroke="rgb(229,227,223)" stroke-width="1" opacity="1" d="M 130.5 110 L 133.5 110 L 137.5 113 L 142 110 L 138 118 Q 140.7 116.9 140 119.5 L 137 123.5 L 138 127.5 Q 137.5 130.5 133.5 130 L 130.5 129 Q 128.5 133 126.5 129 L 125 128.5 L 128 128 Q 130.2 122.4 124.5 124 L 124.5 123 L 128.5 122 L 130 128 L 134.5 129 L 137 128 Q 137.8 124.6 135 123.5 L 135 119.5 L 137 119.5 L 137 115.5 L 133.5 111 Q 129.1 109.5 130 112.5 L 129 115 L 120.5 114 L 115.5 117 L 115 115 Q 117.6 112.3 124.5 113 L 127.5 114 L 130.5 110 Z " /><path fill="rgb(229,227,223)" stroke="rgb(229,227,223)" stroke-width="1" opacity="1" d="M 158.5 110 L 160.5 111 L 162.5 111 Q 165.1 110.2 164 113.5 L 164.5 115 Q 162.8 112.3 161 116.5 Q 162.1 119.8 159.5 119 L 156.5 115 L 158 114.5 L 156 114 L 155 111.5 L 158.5 110 Z " /><path fill="rgb(229,227,223)" stroke="rgb(229,227,223)" stroke-width="1" opacity="1" d="M 49.5 114 L 51 116.5 L 50 116.5 L 49.5 114 Z " /><path fill="rgb(229,227,223)" stroke="rgb(229,227,223)" stroke-width="1" opacity="1" d="M 67.5 116 L 70 117.5 L 71 120.5 L 70 123 L 67.5 124 L 66.5 122 L 69 122 L 69 117 L 67.5 116 Z " /><path fill="rgb(229,227,223)" stroke="rgb(229,227,223)" stroke-width="1" opacity="1" d="M 82 119 L 85 120.5 L 83.5 124 L 82 124 L 82 119 Z " /><path fill="rgb(229,227,223)" stroke="rgb(229,227,223)" stroke-width="1" opacity="1" d="M 97 119 L 99 119 L 99 125 Q 96.3 126.1 97 123.5 L 97 121.5 L 97 119 Z " /><path fill="rgb(229,227,223)" stroke="rgb(229,227,223)" stroke-width="1" opacity="1" d="M 105.5 123 L 108.5 128 Q 115.5 129.5 115 126.5 L 117.5 128 L 124 129.5 L 118 134 L 120 129 L 115.5 128 Q 113.8 130.8 107.5 129 L 105.5 123 Z " /><path fill="rgb(229,227,223)" stroke="rgb(229,227,223)" stroke-width="1" opacity="1" d="M 90.5 125 L 92.5 128 L 94 128.5 L 92.5 129 L 88.5 128 L 86.5 129 L 86.5 128 L 90.5 125 Z " /><path fill="rgb(229,227,223)" stroke="rgb(229,227,223)" stroke-width="1" opacity="1" d="M 104.5 127 L 106 129.5 L 104.5 130 L 101 129 Q 102.5 132.8 99.5 132 L 95 129.5 L 104.5 127 Z " /><path fill="rgb(229,227,223)" stroke="rgb(229,227,223)" stroke-width="1" opacity="1" d="M 125 150 L 128 151.5 L 125 152 L 125 150 Z " /><path fill="rgb(194,193,189)" stroke="rgb(194,193,189)" stroke-width="1" opacity="1" d="M 83.5 22 Q 90.9 21.1 95 23.5 L 91.5 24 Q 89.8 21.3 83.5 23 L 79.5 24 L 79.5 23 L 83.5 22 Z " /><path fill="rgb(194,193,189)" stroke="rgb(194,193,189)" stroke-width="1" opacity="1" d="M 76.5 24 L 78 24.5 Q 70 27 66 33.5 L 61.5 44 L 61 41.5 Q 64.1 31 72.5 26 L 76.5 24 Z " /><path fill="rgb(194,193,189)" stroke="rgb(194,193,189)" stroke-width="1" opacity="1" d="M 96.5 24 L 102 27.5 L 99.5 26 Q 95.7 26.5 96.5 24 Z " /><path fill="rgb(194,193,189)" stroke="rgb(194,193,189)" stroke-width="1" opacity="1" d="M 103.5 28 Q 110.9 33.1 113 43.5 L 111 42.5 Q 109.2 32.5 103.5 28 Z " /><path fill="rgb(194,193,189)" stroke="rgb(194,193,189)" stroke-width="1" opacity="1" d="M 73 30 L 75 30.5 L 74 34 Q 78.1 35.7 77 31.5 L 76.5 30 Q 79.5 29.1 78 33.5 Q 76.8 36 73 35 L 73 30 Z " /><path fill="rgb(194,193,189)" stroke="rgb(194,193,189)" stroke-width="1" opacity="1" d="M 72.5 38 L 100.5 38 L 105 41.5 L 106 43.5 L 106 61.5 L 101.5 67 L 99.5 68 L 73.5 68 L 70 66 L 68 62.5 L 68 42.5 L 72.5 38 Z M 73 39 L 69 43 L 69 63 L 74 67 L 100 67 L 102 66 L 105 62 L 105 44 L 104 42 L 101 39 L 73 39 Z " /><path fill="rgb(194,193,189)" stroke="rgb(194,193,189)" stroke-width="1" opacity="1" d="M 72.5 41 L 100.5 41 L 104 44.5 L 104 60.5 L 99.5 65 L 74.5 65 L 71 62.5 L 71.5 61 L 74.5 64 L 99.5 64 L 103 60.5 L 103 45.5 L 102 43 L 99.5 42 L 73.5 42 L 71 44.5 L 70.5 60 L 70 44.5 L 72.5 41 Z " /><path fill="rgb(194,193,189)" stroke="rgb(194,193,189)" stroke-width="1" opacity="1" d="M 54.5 44 L 54 45.5 L 53 47.5 L 53 68.5 L 54 71 Q 59.4 72.5 61 69.5 Q 60 65.8 63 67 L 64 71.5 L 63 71.5 L 62.5 70 Q 60.5 73 54.5 72 L 52 68.5 L 52 47.5 L 54.5 44 Z " /><path fill="rgb(194,193,189)" stroke="rgb(194,193,189)" stroke-width="1" opacity="1" d="M 118.5 44 L 121 45.5 L 119.5 45 L 118.5 44 Z " /><path fill="rgb(194,193,189)" stroke="rgb(194,193,189)" stroke-width="1" opacity="1" d="M 121.5 47 L 122 68.5 L 121 68.5 L 121.5 47 Z " /><path fill="rgb(194,193,189)" stroke="rgb(194,193,189)" stroke-width="1" opacity="1" d="M 111.5 67 L 113.5 71 L 119 71.5 L 113.5 72 Q 111.8 68.3 110 71.5 L 105.5 78 L 103.5 79 L 104.5 77 Q 106.8 77.8 106 75.5 L 111.5 67 Z " /><path fill="rgb(194,193,189)" stroke="rgb(194,193,189)" stroke-width="1" opacity="1" d="M 64.5 73 L 69 76 L 68.5 78 L 64.5 73 Z " /><path fill="rgb(194,193,189)" stroke="rgb(194,193,189)" stroke-width="1" opacity="1" d="M 70.5 78 L 78 82.5 L 75.5 81 Q 70.5 80.8 70.5 78 Z " /><path fill="rgb(194,193,189)" stroke="rgb(194,193,189)" stroke-width="1" opacity="1" d="M 100.5 79 L 102 79.5 L 96 82.5 Q 97.3 91.4 95 95 Q 91 93.6 93 100.5 Q 91 105 82.5 103 Q 79.8 101.8 81 96.5 L 78 92.5 L 79 92.5 Q 78.3 94.8 80.5 94 Q 83.8 95.9 82 102 L 90.5 102 L 92 100.5 Q 90.8 93.8 95 92.5 L 95 82.5 L 97.5 80 L 100.5 79 Z " /><path fill="rgb(194,193,189)" stroke="rgb(194,193,189)" stroke-width="1" opacity="1" d="M 42.5 111 L 44 111.5 L 42 112 L 36.5 128 L 36 125.5 L 42.5 111 Z " /><path fill="rgb(194,193,189)" stroke="rgb(194,193,189)" stroke-width="1" opacity="1" d="M 47.5 111 L 49 113.5 L 48 113.5 L 47.5 111 Z " /><path fill="rgb(194,193,189)" stroke="rgb(194,193,189)" stroke-width="1" opacity="1" d="M 54 111 L 56 111.5 L 55 112.5 L 55 125.5 L 54 126.5 L 54.5 128 Q 51.9 128.8 53 125.5 L 49 115.5 L 50 115.5 L 53.5 123 L 54 111 Z " /><path fill="rgb(194,193,189)" stroke="rgb(194,193,189)" stroke-width="1" opacity="1" d="M 57.5 111 Q 59.8 110.3 59 112.5 L 60 113.5 L 60 125.5 L 58.5 128 L 58 112.5 L 57.5 111 Z " /><path fill="rgb(194,193,189)" stroke="rgb(194,193,189)" stroke-width="1" opacity="1" d="M 61 111 L 63 111.5 L 62 112.5 L 61.5 128 L 61 111 Z " /><path fill="rgb(194,193,189)" stroke="rgb(194,193,189)" stroke-width="1" opacity="1" d="M 69.5 111 L 75 113.5 L 76.5 117 L 79.5 115 L 79.5 116 Q 77.3 115.3 78 117.5 Q 75.5 119 77 124.5 L 78 127 L 80 127.5 L 78.5 128 L 77 125 L 71.5 128 L 71.5 127 L 74 125.5 Q 76.3 122.3 75 115.5 Q 74.5 111.5 69.5 112 L 69.5 111 Z " /><path fill="rgb(194,193,189)" stroke="rgb(194,193,189)" stroke-width="1" opacity="1" d="M 92.5 111 Q 96.5 110.5 97 113.5 Q 96.3 116.1 99 115 L 99 111 L 100.5 111 L 100 112.5 L 100 127.5 L 98 128 L 95 123.5 L 95 119.5 L 98 118 L 96.5 115 Q 93.5 115.7 95 112 L 92 112 L 90 117.5 L 92 119.5 Q 90.3 125.8 93 127.5 L 91 126.5 L 90.5 125 L 87 127.5 Q 90.2 125.7 90 120.5 L 87.5 116 L 81 114.5 L 85.5 114 L 88.5 116 L 92.5 111 Z M 97 119 L 97 122 L 97 124 Q 96 126 99 125 L 99 119 L 97 119 Z " /><path fill="rgb(194,193,189)" stroke="rgb(194,193,189)" stroke-width="1" opacity="1" d="M 104.5 111 L 107 112.5 L 108.5 116 L 110.5 111 L 112 111.5 L 110 112 L 109.5 120 L 106 112 L 104.5 111 Z " /><path fill="rgb(194,193,189)" stroke="rgb(194,193,189)" stroke-width="1" opacity="1" d="M 113.5 111 Q 116.3 110.4 115 116.5 L 117.5 115 L 119 115.5 Q 114.5 117 116 124.5 L 117 127 L 119 127.5 L 117.5 128 L 115 126.5 L 114.5 128 L 114 112.5 L 113.5 111 Z " /><path fill="rgb(194,193,189)" stroke="rgb(194,193,189)" stroke-width="1" opacity="1" d="M 130 111 Q 133.8 110 135 112.5 L 137 115.5 L 135.5 115 Q 133.3 115.8 134 113.5 L 131.5 112 L 129 117.5 L 132 127.5 L 130 128 L 128.5 122 L 126.5 123 L 126.5 122 Q 129.9 122.9 128 117.5 Q 125.7 114.3 120 114.5 L 124.5 114 L 129 115 L 130 111 Z " /><path fill="rgb(194,193,189)" stroke="rgb(194,193,189)" stroke-width="1" opacity="1" d="M 66.5 115 L 71 116 L 70.5 119 L 68.5 116 L 66 117.5 Q 64.8 122.8 67.5 124 L 70 123 L 70.5 121 L 71 122.5 Q 69.8 125.8 66 125 Q 64.3 122.6 65 116.5 L 66.5 115 Z " /><path fill="rgb(194,193,189)" stroke="rgb(194,193,189)" stroke-width="1" opacity="1" d="M 44 117 Q 46.7 115.9 46 118.5 Q 48.3 119.8 45.5 121 L 43 119.5 L 44 117 Z " /><path fill="rgb(194,193,189)" stroke="rgb(194,193,189)" stroke-width="1" opacity="1" d="M 136.5 117 L 137 119 Q 133.3 117.7 135 123.5 L 137 127.5 L 136 127.5 L 136 125 L 134 124.5 L 134 119.5 L 136.5 117 Z " /><path fill="rgb(194,193,189)" stroke="rgb(194,193,189)" stroke-width="1" opacity="1" d="M 82.5 118 Q 85.8 116.9 85 119.5 L 86 122.5 L 85 125 L 81 123.5 Q 80 119 82.5 118 Z M 82 119 L 82 124 L 84 124 L 85 121 L 82 119 Z " /><path fill="rgb(194,193,189)" stroke="rgb(194,193,189)" stroke-width="1" opacity="1" d="M 121.5 118 Q 125.3 117 124 120 L 120 119.5 L 121.5 118 Z " /><path fill="rgb(194,193,189)" stroke="rgb(194,193,189)" stroke-width="1" opacity="1" d="M 104.5 119 L 109 127.5 L 107 126.5 L 105.5 123 L 103.5 128 L 103 126.5 L 104.5 119 Z " /><path fill="rgb(194,193,189)" stroke="rgb(194,193,189)" stroke-width="1" opacity="1" d="M 120.5 123 L 128 124 L 127.5 128 L 127 125 Q 120.4 126.5 120.5 123 Z " /><path fill="rgb(194,193,189)" stroke="rgb(194,193,189)" stroke-width="1" opacity="1" d="M 42.5 124 Q 47.8 122.8 49 125.5 L 50 127.5 L 48 128 L 48 125 L 42 125 Q 43.5 128.8 40.5 128 L 41 126.5 L 42.5 124 Z " /><path fill="rgb(194,193,189)" stroke="rgb(194,193,189)" stroke-width="1" opacity="1" d="M 81.5 128 L 86 128.5 L 81.5 129 L 81.5 128 Z " /><path fill="rgb(194,193,189)" stroke="rgb(194,193,189)" stroke-width="1" opacity="1" d="M 94.5 128 L 97 128.5 L 94.5 129 L 94.5 128 Z " /><path fill="rgb(194,193,189)" stroke="rgb(194,193,189)" stroke-width="1" opacity="1" d="M 120.5 128 L 125 128.5 L 120.5 129 L 120.5 128 Z " /><path fill="rgb(230,228,225)" stroke="rgb(230,228,225)" stroke-width="1" opacity="1" d="M 32.5 0 Q 36.9 -1.5 36 1.5 L 38.5 0 Q 44.6 -1.1 47 1.5 L 45 2 Q 44 5.8 46.5 7 L 60 2 L 60.5 0 L 65.5 2 Q 66.8 -0.3 68 2.5 L 64 4.5 L 64.5 6 L 68.5 4 L 70 4.5 L 69 1.5 L 71 0.5 L 71 2.5 Q 70.3 4.8 72.5 4 L 74.5 3 Q 76 5.5 77.5 2 L 79 1.5 L 78.5 0 L 81 0.5 L 80.5 2 L 85.5 0 L 87.5 0 L 95 0 L 95 3.5 L 96 3.5 L 96.5 2 L 99 3 L 100.5 0 Q 106.5 -1.5 108 1.5 Q 107.3 3.8 109.5 3 L 109 1.5 L 109.5 0 L 116 0 L 116 3 L 123.5 3 L 123.5 1 L 126.5 0 L 158.5 0 L 160.5 0 L 174 0 L 174 9 Q 169.3 10 168 6.5 L 168.5 5 L 170.5 8 Q 173.1 8.8 172 5.5 L 171 3 L 166 2 L 166 6 L 164.5 6 L 162.5 5 L 163 6.5 L 163 8 L 159 8 L 159 9.5 Q 161.6 14.3 167 15 Q 167.8 18.8 164.5 20 L 151.5 18 L 150 21.5 L 152 26 L 158.5 26 L 159 27.5 L 155 29.5 L 159.5 30 L 162 29 L 161 25.5 L 164 23.5 L 163 26.5 L 165 28.5 L 165.5 30 L 166.5 25 L 169 34 L 172.5 35 L 174 34.5 L 173.5 56 L 171.5 53 L 171 57.5 L 173 57.5 L 171 60.5 L 171 62.5 L 172 64.5 L 171 67.5 L 174 69 L 173 73.5 L 173.5 75 Q 170.9 74.2 172 77.5 L 169 85.5 L 171 86.5 L 172 80.5 L 173.5 79 L 174 97.5 L 173 97.5 Q 173.7 94.9 171 96 L 169.5 99 L 165.5 97 L 163 100.5 L 167 101 L 166 105 L 173.5 101 L 171.5 104 L 169 105.5 Q 171.3 106.8 168.5 108 L 166 107 L 165.5 105 L 165 107.5 L 166 110 L 174 107 L 173.5 109 L 172 108.5 Q 172.8 110.8 170.5 110 L 171.5 112 L 173.5 111 L 174 114 L 170 114.5 L 171 117.5 L 153.5 128 L 145.5 117 Q 142.9 117.8 144 114.5 L 141.5 113 L 140 113.5 L 142 110 L 136.5 113 L 134.5 110 L 137.5 112 L 140 108.5 L 133 95.5 L 131 85.5 L 134.5 77 L 142 77 L 142 73.5 L 143 72.5 L 143 60.5 L 141 55 L 133 55 L 133 51.5 L 131 46.5 Q 133.5 45 130 43.5 L 130 27.5 L 128.5 27 L 127 23.5 L 128 21.5 Q 118.8 17.7 113 10.5 L 111.5 8 L 102.5 12 L 94.5 13 L 92.5 15 L 90.5 12 L 89.5 15 L 86 13.5 Q 88.3 12.3 85.5 11 L 85 13 L 81.5 15 L 78 15 L 77.5 19 L 74.5 16 L 71 16.5 L 72.5 14 L 71 13.5 L 74.5 11 L 76 11.5 L 75 9.5 L 77 10.5 L 77.5 12 L 78 9.5 L 72.5 5 L 68 8.5 Q 68.8 10.8 66.5 10 L 60.5 14 L 56.5 13 Q 55.3 15.3 50.5 14 L 49 15.5 Q 49.8 18.1 46.5 17 L 44 18 Q 42.8 21.7 48 20 L 48 25.5 L 53.5 35 L 54 33.5 L 50 25.5 L 50 18.5 Q 52.1 14.9 57 15 L 54 19.5 Q 56 23 58 18.5 L 59.5 16 L 67.5 12 L 69 14.5 Q 65 15.9 66 21 L 70.5 22 L 73.5 20 Q 76.5 21.5 73.5 23 L 70 23.5 L 73 24.5 L 65 31.5 L 65 33 L 63 33 Q 64.1 35.7 61.5 35 Q 60 37.5 58.5 34 L 55 34.5 L 58 36.5 L 55.5 37 L 52.5 36 L 51 36.5 L 51.5 35 L 48 36.5 Q 47.3 38.8 49.5 38 L 49 39.5 L 50 43.5 L 46 48.5 L 50 51.5 L 50 60.5 L 48.5 62 Q 46.3 61.3 47 63.5 Q 51 66 50.5 73 L 51.5 71 L 52.5 74 L 55.5 73 L 55.5 74 L 53 75.5 L 56.5 80 L 60 81 L 60 84.5 L 66 93.5 L 66 97 Q 68.7 95.9 68 98.5 L 71 102.5 L 70 102.5 L 69.5 101 L 67.5 102 L 65 101.5 L 65.5 100 Q 61.8 101.3 63 97.5 L 59.5 96 L 54 98 L 59.5 110 L 60 107 L 63 106.5 Q 60.3 104.8 64.5 103 L 70 104 Q 68.9 106.7 71.5 106 L 73 109 L 70.5 110 Q 63 108.5 59.5 111 L 54.5 110 L 52 111.5 Q 53.3 108.3 58 108.5 Q 52.6 108.4 50.5 105 L 49 105.5 Q 49.8 103.3 47.5 104 L 34 95 L 34 93 Q 31.3 94.1 32 91.5 L 28 84.5 L 28 81 L 31 79.5 L 28.5 79 L 23 82 L 22 85.5 Q 24.8 87.5 24 92 L 19.5 93 L 11.5 99 L 5 95.5 L 19 85.5 Q 18.5 82.5 14.5 83 L 1 91 L 2 87.5 Q -0.5 86 3 84.5 L 1 80.5 L 11.5 61 L 12 64.5 L 11 68.5 L 14.5 74 L 16.5 75 L 17 73 Q 19.7 74.1 19 71.5 L 21 68 Q 23.7 69.1 23 66.5 Q 26.1 64.8 24.5 63 L 26 62.5 L 26 60.5 L 28 55.5 Q 24 53.5 28 51.5 L 28 46.5 L 26 42.5 L 26 40.5 L 25 31 L 28 29.5 L 26.5 26 Q 24.3 26.8 25 24.5 L 24.5 23 L 26 22.5 L 25 19.5 Q 23.3 13.3 26 11.5 L 25 8.5 Q 29 6.3 29 1 L 32.5 0 Z M 104 1 L 102 2 L 102 3 L 106 3 L 104 1 Z M 32 2 L 32 3 L 34 3 L 32 2 Z M 163 2 L 164 4 Q 165 1 163 2 Z M 78 3 L 77 5 L 81 5 L 78 3 Z M 30 4 L 28 9 L 28 10 L 31 9 Q 32 11 33 9 L 32 6 L 31 6 L 30 4 Z M 108 4 L 107 6 L 112 6 Q 111 3 110 5 L 108 4 Z M 116 5 L 115 6 Q 111 5 112 8 L 117 9 Q 119 10 118 7 L 116 5 Z M 66 6 L 65 9 L 67 9 L 66 6 Z M 67 6 L 67 8 L 69 7 L 67 6 Z M 103 6 L 103 8 L 105 7 L 103 6 Z M 78 7 L 79 9 L 80 9 L 78 7 Z M 89 8 L 87 10 L 89 12 L 89 11 L 91 11 L 91 9 L 89 8 Z M 97 10 Q 95 13 98 12 L 97 10 Z M 28 11 L 26 14 Q 25 17 28 16 L 29 14 L 28 11 Z M 93 11 L 93 12 L 95 12 L 93 11 Z M 47 12 L 45 14 L 48 15 L 49 13 L 47 12 Z M 75 12 L 74 15 L 76 15 L 75 12 Z M 35 13 L 35 15 L 37 14 L 35 13 Z M 43 14 L 43 20 L 43 17 L 46 16 L 43 14 Z M 135 14 L 132 17 L 134 17 L 136 17 L 135 14 Z M 33 15 L 33 17 L 35 16 L 33 15 Z M 28 16 L 29 19 L 28 19 L 29 21 L 31 20 L 30 18 Q 31 15 28 16 Z M 137 17 L 135 19 L 137 23 L 139 22 L 137 17 Z M 37 18 L 36 21 L 37 21 L 37 18 Z M 30 22 L 29 25 L 30 25 L 30 22 Z M 67 22 L 65 24 Q 64 26 67 25 L 68 23 L 67 22 Z M 137 23 L 136 26 L 138 26 L 137 23 Z M 33 24 Q 31 27 34 26 L 33 24 Z M 140 27 L 139 30 L 143 32 L 145 29 L 142 30 L 142 29 L 140 27 Z M 156 33 L 154 38 L 158 42 L 159 40 L 162 47 L 163 45 L 162 42 L 160 42 Q 159 39 162 40 L 163 38 L 161 36 L 159 34 L 158 34 L 156 33 Z M 46 51 L 46 53 L 48 54 Q 49 50 46 51 Z M 36 59 Q 35 62 39 61 Q 40 58 36 59 Z M 43 62 Q 42 65 45 64 Q 46 61 43 62 Z M 157 63 L 153 64 L 151 68 L 158 67 L 157 66 L 158 64 L 157 63 Z M 172 71 L 171 75 L 172 75 L 172 71 Z M 151 72 L 149 75 Q 151 78 153 74 Q 155 75 154 79 L 152 77 Q 149 78 150 82 L 151 82 L 151 80 L 156 80 L 155 78 L 156 76 L 151 72 Z M 151 87 L 150 91 L 148 91 Q 147 95 152 93 Q 153 88 151 87 Z M 148 96 L 146 98 Q 145 102 150 100 L 149 99 L 150 97 L 148 96 Z M 147 102 L 145 106 L 146 106 Q 145 103 148 104 L 147 102 Z M 159 110 L 155 112 L 156 114 L 158 115 L 157 115 L 160 119 Q 162 120 161 117 Q 164 115 162 114 L 164 114 Q 165 110 163 111 L 161 111 L 159 110 Z " /><path fill="rgb(230,228,225)" stroke="rgb(230,228,225)" stroke-width="1" opacity="1" d="M 0.5 4 L 9 11.5 L 15 21.5 Q 11.5 22 12 26.5 L 15 33.5 Q 14.3 40.5 16 44 L 11 42 L 0.5 65 L 0.5 4 Z " /><path fill="rgb(230,228,225)" stroke="rgb(230,228,225)" stroke-width="1" opacity="1" d="M 173.5 13 L 173.5 16 Q 170.5 14.5 173.5 13 Z " /><path fill="rgb(230,228,225)" stroke="rgb(230,228,225)" stroke-width="1" opacity="1" d="M 161.5 20 L 162 22.5 L 161 22.5 L 161.5 20 Z " /><path fill="rgb(230,228,225)" stroke="rgb(230,228,225)" stroke-width="1" opacity="1" d="M 171.5 22 L 174 24.5 L 174 32 Q 170.2 33.5 171 30.5 L 170 26.5 L 171.5 22 Z " /><path fill="rgb(230,228,225)" stroke="rgb(230,228,225)" stroke-width="1" opacity="1" d="M 108.5 31 L 110.5 34 L 108.5 31 Z " /><path fill="rgb(230,228,225)" stroke="rgb(230,228,225)" stroke-width="1" opacity="1" d="M 94.5 39 L 100 39.5 L 94.5 40 L 94.5 39 Z " /><path fill="rgb(230,228,225)" stroke="rgb(230,228,225)" stroke-width="1" opacity="1" d="M 60.5 41 L 59.5 43 L 54 42.5 L 60.5 41 Z " /><path fill="rgb(230,228,225)" stroke="rgb(230,228,225)" stroke-width="1" opacity="1" d="M 113.5 41 L 118 42.5 L 114.5 43 L 113.5 41 Z " /><path fill="rgb(230,228,225)" stroke="rgb(230,228,225)" stroke-width="1" opacity="1" d="M 120.5 43 L 121.5 45 L 120.5 43 Z " /><path fill="rgb(230,228,225)" stroke="rgb(230,228,225)" stroke-width="1" opacity="1" d="M 51.5 46 L 50.5 48 L 51.5 46 Z " /><path fill="rgb(230,228,225)" stroke="rgb(230,228,225)" stroke-width="1" opacity="1" d="M 16.5 53 Q 18.8 52.3 18 54.5 L 19 54.5 L 19.5 53 L 20 54.5 Q 17.8 55.7 19 60.5 L 20 62.5 L 17 67 L 15 66.5 L 16 63.5 L 15 59.5 L 15 55.5 L 16.5 53 Z " /><path fill="rgb(230,228,225)" stroke="rgb(230,228,225)" stroke-width="1" opacity="1" d="M 61.5 72 L 65 77 L 69 78 L 69 80 Q 71.7 78.9 71 81.5 L 75 93 Q 72 94 73 91 L 70.5 91 L 69 91.5 L 70 87.5 L 68 86.5 L 70 85.5 L 68 85 L 66.5 82 L 61 80 L 60 74 L 58 73.5 L 61.5 72 Z " /><path fill="rgb(230,228,225)" stroke="rgb(230,228,225)" stroke-width="1" opacity="1" d="M 110.5 74 L 107.5 78 L 110.5 74 Z " /><path fill="rgb(230,228,225)" stroke="rgb(230,228,225)" stroke-width="1" opacity="1" d="M 56 75 L 59 76.5 Q 57.5 79.5 56 76.5 L 56 75 Z " /><path fill="rgb(230,228,225)" stroke="rgb(230,228,225)" stroke-width="1" opacity="1" d="M 105.5 78 L 104.5 80 L 105.5 78 Z " /><path fill="rgb(230,228,225)" stroke="rgb(230,228,225)" stroke-width="1" opacity="1" d="M 74.5 81 L 75.5 83 L 74.5 81 Z " /><path fill="rgb(230,228,225)" stroke="rgb(230,228,225)" stroke-width="1" opacity="1" d="M 98.5 81 L 97.5 83 L 98.5 81 Z " /><path fill="rgb(230,228,225)" stroke="rgb(230,228,225)" stroke-width="1" opacity="1" d="M 63 83 L 66 84.5 L 63 84.5 L 63 83 Z " /><path fill="rgb(230,228,225)" stroke="rgb(230,228,225)" stroke-width="1" opacity="1" d="M 76.5 84 L 77 91.5 L 76 91.5 L 76.5 84 Z " /><path fill="rgb(230,228,225)" stroke="rgb(230,228,225)" stroke-width="1" opacity="1" d="M 65 86 Q 68.3 84.7 67 89.5 L 66 89.5 L 65 86 Z " /><path fill="rgb(230,228,225)" stroke="rgb(230,228,225)" stroke-width="1" opacity="1" d="M 68 93 L 73 96.5 L 71.5 100 L 71.5 98 Q 69.3 98.8 70 96.5 L 68 93 Z " /><path fill="rgb(230,228,225)" stroke="rgb(230,228,225)" stroke-width="1" opacity="1" d="M 96.5 94 L 95.5 96 L 96.5 94 Z " /><path fill="rgb(230,228,225)" stroke="rgb(230,228,225)" stroke-width="1" opacity="1" d="M 79.5 96 L 80 99.5 L 79 99.5 L 79.5 96 Z " /><path fill="rgb(230,228,225)" stroke="rgb(230,228,225)" stroke-width="1" opacity="1" d="M 60.5 99 L 62.5 102 L 60.5 99 Z " /><path fill="rgb(230,228,225)" stroke="rgb(230,228,225)" stroke-width="1" opacity="1" d="M 59.5 101 L 58.5 103 L 59.5 101 Z " /><path fill="rgb(230,228,225)" stroke="rgb(230,228,225)" stroke-width="1" opacity="1" d="M 83.5 105 L 90 111.5 L 88.5 113 L 86.5 114 L 85 111.5 L 86 111.5 L 86.5 113 Q 90 111 85.5 109 L 82 107.5 L 84 107.5 L 83.5 105 Z " /><path fill="rgb(230,228,225)" stroke="rgb(230,228,225)" stroke-width="1" opacity="1" d="M 78.5 108 L 78 109.5 L 80 112.5 L 76.5 115 L 76.5 114 L 79 112.5 L 77 109.5 L 78.5 108 Z " /><path fill="rgb(230,228,225)" stroke="rgb(230,228,225)" stroke-width="1" opacity="1" d="M 42.5 109 L 48 109.5 L 42.5 110 L 42.5 109 Z " /><path fill="rgb(230,228,225)" stroke="rgb(230,228,225)" stroke-width="1" opacity="1" d="M 100.5 109 Q 106.8 107.8 108 111.5 L 105.5 110 Q 99.5 111.2 100.5 109 Z " /><path fill="rgb(230,228,225)" stroke="rgb(230,228,225)" stroke-width="1" opacity="1" d="M 110.5 109 L 114 109.5 L 110.5 110 L 110.5 109 Z " /><path fill="rgb(230,228,225)" stroke="rgb(230,228,225)" stroke-width="1" opacity="1" d="M 96.5 110 L 99 110.5 Q 96.9 113.8 96.5 110 Z " /><path fill="rgb(230,228,225)" stroke="rgb(230,228,225)" stroke-width="1" opacity="1" d="M 74.5 111 L 75.5 113 L 74.5 111 Z " /><path fill="rgb(230,228,225)" stroke="rgb(230,228,225)" stroke-width="1" opacity="1" d="M 116.5 112 L 117 114.5 L 116 114.5 L 116.5 112 Z " /><path fill="rgb(230,228,225)" stroke="rgb(230,228,225)" stroke-width="1" opacity="1" d="M 120.5 112 L 124 112.5 L 120.5 113 L 120.5 112 Z " /><path fill="rgb(230,228,225)" stroke="rgb(230,228,225)" stroke-width="1" opacity="1" d="M 138.5 116 L 139.5 118 L 138.5 116 Z " /><path fill="rgb(230,228,225)" stroke="rgb(230,228,225)" stroke-width="1" opacity="1" d="M 140.5 119 L 141 120.5 L 137 123.5 L 140.5 119 Z " /><path fill="rgb(230,228,225)" stroke="rgb(230,228,225)" stroke-width="1" opacity="1" d="M 34.5 125 L 36 128.5 L 34 127.5 L 34.5 125 Z " /><path fill="rgb(230,228,225)" stroke="rgb(230,228,225)" stroke-width="1" opacity="1" d="M 105.5 125 Q 106 130.5 110.5 132 Q 112.8 131.3 112 133.5 L 114.5 135 L 117.5 131 L 119.5 130 L 118 132.5 L 117.5 135 L 116 134.5 Q 116.8 137.1 113.5 136 L 105 130.5 L 105 128.5 L 105.5 125 Z " /><path fill="rgb(230,228,225)" stroke="rgb(230,228,225)" stroke-width="1" opacity="1" d="M 74.5 127 L 73.5 129 L 74.5 127 Z " /><path fill="rgb(230,228,225)" stroke="rgb(230,228,225)" stroke-width="1" opacity="1" d="M 76.5 127 L 77.5 129 L 76.5 127 Z " /><path fill="rgb(230,228,225)" stroke="rgb(230,228,225)" stroke-width="1" opacity="1" d="M 130.5 129 L 133 129.5 L 129.5 131 L 130.5 129 Z " /><path fill="rgb(230,228,225)" stroke="rgb(230,228,225)" stroke-width="1" opacity="1" d="M 97.5 130 L 101 132 L 101.5 130 L 102 131.5 L 99.5 133 L 97.5 130 Z " /><path fill="rgb(230,228,225)" stroke="rgb(230,228,225)" stroke-width="1" opacity="1" d="M 123.5 130 L 120.5 134 L 123.5 130 Z " /><path fill="rgb(230,228,225)" stroke="rgb(230,228,225)" stroke-width="1" opacity="1" d="M 120.5 139 L 121 140.5 L 120.5 143 L 118.5 142 L 117 142.5 L 118 140 L 120.5 139 Z " /><path fill="rgb(230,228,225)" stroke="rgb(230,228,225)" stroke-width="1" opacity="1" d="M 92.5 145 L 93 147.5 L 92 147.5 L 92.5 145 Z " /><path fill="rgb(230,228,225)" stroke="rgb(230,228,225)" stroke-width="1" opacity="1" d="M 96.5 148 L 98 148.5 L 95.5 150 L 96.5 148 Z " /><path fill="rgb(230,228,225)" stroke="rgb(230,228,225)" stroke-width="1" opacity="1" d="M 124 149 L 126 149.5 L 125 152 L 123 151.5 L 124 149 Z " /><path fill="rgb(230,228,225)" stroke="rgb(230,228,225)" stroke-width="1" opacity="1" d="M 127.5 150 Q 129.8 149.3 129 151.5 L 126.5 153 L 126.5 152 L 128 151.5 L 127.5 150 Z " /><path fill="rgb(230,228,225)" stroke="rgb(230,228,225)" stroke-width="1" opacity="1" d="M 124.5 154 L 127 155.5 L 125.5 155 L 123.5 156 L 124.5 154 Z " /><path fill="rgb(1,1,1)" stroke="rgb(1,1,1)" stroke-width="1" opacity="1" d="M 79.5 25 L 93.5 25 Q 101.5 27.5 106 33.5 L 111.5 46 L 118.5 46 L 119 47.5 L 120 48.5 L 120 68.5 Q 119.3 70.8 115.5 70 L 112.5 65 L 109 66.5 Q 108.6 74.6 102.5 77 Q 96.6 77.6 94 81.5 L 94 91.5 L 92.5 93 Q 89.1 92.1 91 97.5 L 90 101 Q 84.6 102.5 83 99.5 Q 84.3 94.3 81.5 93 L 80 92.5 L 80 82.5 L 79 80 L 70.5 77 L 66 72.5 L 64 66 Q 58.8 63.9 60 68.5 Q 58.8 71 55 70 L 55 46.5 Q 55.3 45.3 61.5 46 L 67 34.5 L 70.5 31 L 72 36 Q 77.4 37.5 79 34.5 Q 80.3 28.4 77.5 29 L 75 27.5 L 79.5 25 Z M 72 37 L 70 38 L 66 43 L 66 63 L 73 69 L 101 69 L 103 68 L 107 64 L 107 42 L 103 37 L 72 37 Z " /><path fill="rgb(1,1,1)" stroke="rgb(1,1,1)" stroke-width="1" opacity="1" d="M 74.5 43 L 98.5 43 L 101 45.5 L 101 60.5 L 98.5 63 L 75.5 63 L 73 60.5 L 72 58.5 L 72 46.5 L 74.5 43 Z " /><path fill="rgb(1,1,1)" stroke="rgb(1,1,1)" stroke-width="1" opacity="1" d="M 110.5 124 L 111.5 126 L 110.5 124 Z " /><path fill="rgb(103,100,101)" stroke="rgb(103,100,101)" stroke-width="1" opacity="1" d="M 83.5 23 L 91 23.5 L 83.5 24 L 83.5 23 Z " /><path fill="rgb(103,100,101)" stroke="rgb(103,100,101)" stroke-width="1" opacity="1" d="M 78.5 24 L 81 24.5 L 76.5 26 L 76.5 25 L 78.5 24 Z " /><path fill="rgb(103,100,101)" stroke="rgb(103,100,101)" stroke-width="1" opacity="1" d="M 93.5 24 L 97 25.5 L 95.5 25 Q 92.5 25.5 93.5 24 Z " /><path fill="rgb(103,100,101)" stroke="rgb(103,100,101)" stroke-width="1" opacity="1" d="M 98.5 26 L 107 32.5 L 102.5 29 Q 97.8 28.2 98.5 26 Z " /><path fill="rgb(103,100,101)" stroke="rgb(103,100,101)" stroke-width="1" opacity="1" d="M 72.5 27 L 66.5 34 L 72.5 27 Z " /><path fill="rgb(103,100,101)" stroke="rgb(103,100,101)" stroke-width="1" opacity="1" d="M 74.5 29 L 77 29.5 L 74.5 30 L 74.5 29 Z " /><path fill="rgb(103,100,101)" stroke="rgb(103,100,101)" stroke-width="1" opacity="1" d="M 72.5 30 L 73 33.5 L 72 33.5 L 72.5 30 Z " /><path fill="rgb(103,100,101)" stroke="rgb(103,100,101)" stroke-width="1" opacity="1" d="M 77.5 34 L 76.5 36 L 74 35.5 L 77.5 34 Z " /><path fill="rgb(103,100,101)" stroke="rgb(103,100,101)" stroke-width="1" opacity="1" d="M 107.5 34 L 111 41.5 L 110 41.5 L 107.5 34 Z " /><path fill="rgb(103,100,101)" stroke="rgb(103,100,101)" stroke-width="1" opacity="1" d="M 65.5 35 L 65 36.5 L 63.5 40 L 63 38.5 L 65.5 35 Z " /><path fill="rgb(103,100,101)" stroke="rgb(103,100,101)" stroke-width="1" opacity="1" d="M 71.5 38 L 68 42.5 L 68 62.5 L 70 64.5 L 67 62.5 L 67 42.5 L 68 40 L 71.5 38 Z " /><path fill="rgb(103,100,101)" stroke="rgb(103,100,101)" stroke-width="1" opacity="1" d="M 101.5 38 L 106 41.5 L 105.5 43 L 102.5 39 L 101.5 38 Z " /><path fill="rgb(103,100,101)" stroke="rgb(103,100,101)" stroke-width="1" opacity="1" d="M 62.5 41 L 63 43.5 L 61.5 45 Q 56 43.5 54.5 46 L 55.5 44 L 62 44 L 62.5 41 Z " /><path fill="rgb(103,100,101)" stroke="rgb(103,100,101)" stroke-width="1" opacity="1" d="M 73.5 42 L 72 44.5 L 72 60.5 L 74.5 63 L 99.5 63 L 102 60.5 L 102 45.5 L 99 42.5 L 100.5 43 Q 102.8 42.3 102 44.5 L 103 45.5 L 103 60.5 L 99.5 64 L 74.5 64 L 71 60.5 L 71 44.5 L 73.5 42 Z " /><path fill="rgb(103,100,101)" stroke="rgb(103,100,101)" stroke-width="1" opacity="1" d="M 111.5 43 L 118 44.5 L 111 45 L 111.5 43 Z " /><path fill="rgb(103,100,101)" stroke="rgb(103,100,101)" stroke-width="1" opacity="1" d="M 119.5 45 L 121 46.5 L 121 69.5 L 118.5 71 L 118.5 70 L 120 69.5 L 120 46.5 L 119.5 45 Z " /><path fill="rgb(103,100,101)" stroke="rgb(103,100,101)" stroke-width="1" opacity="1" d="M 53.5 47 L 54 68.5 L 53 68.5 L 53.5 47 Z " /><path fill="rgb(103,100,101)" stroke="rgb(103,100,101)" stroke-width="1" opacity="1" d="M 105.5 62 L 106 63.5 L 100.5 68 L 100.5 67 L 105 63.5 L 105.5 62 Z " /><path fill="rgb(103,100,101)" stroke="rgb(103,100,101)" stroke-width="1" opacity="1" d="M 61.5 66 L 64 67.5 L 63.5 70 L 63 67 L 61.5 66 Z " /><path fill="rgb(103,100,101)" stroke="rgb(103,100,101)" stroke-width="1" opacity="1" d="M 70.5 66 L 73 67.5 L 71.5 67 L 70.5 66 Z " /><path fill="rgb(103,100,101)" stroke="rgb(103,100,101)" stroke-width="1" opacity="1" d="M 110 66 L 113 66 L 113 70 L 114.5 70 L 114.5 71 L 112 69.5 L 111.5 67 L 106.5 75 L 108 72.5 L 110 66 Z " /><path fill="rgb(103,100,101)" stroke="rgb(103,100,101)" stroke-width="1" opacity="1" d="M 60.5 68 L 61 69.5 L 58.5 71 L 58.5 70 Q 61 70.7 60.5 68 Z " /><path fill="rgb(103,100,101)" stroke="rgb(103,100,101)" stroke-width="1" opacity="1" d="M 64.5 71 L 68 75.5 L 64 72.5 L 64.5 71 Z " /><path fill="rgb(103,100,101)" stroke="rgb(103,100,101)" stroke-width="1" opacity="1" d="M 104.5 76 L 106 76.5 L 101.5 79 L 101.5 78 L 104.5 76 Z " /><path fill="rgb(103,100,101)" stroke="rgb(103,100,101)" stroke-width="1" opacity="1" d="M 69.5 77 L 72 78.5 L 70.5 78 L 69.5 77 Z " /><path fill="rgb(103,100,101)" stroke="rgb(103,100,101)" stroke-width="1" opacity="1" d="M 76.5 80 L 79 82.5 L 79 91.5 L 82 94.5 L 80.5 94 Q 78.3 94.8 79 92.5 L 78 91.5 L 78 82.5 L 76.5 80 Z " /><path fill="rgb(103,100,101)" stroke="rgb(103,100,101)" stroke-width="1" opacity="1" d="M 96.5 80 L 95.5 82 L 96.5 80 Z " /><path fill="rgb(103,100,101)" stroke="rgb(103,100,101)" stroke-width="1" opacity="1" d="M 94.5 83 L 95 92.5 L 92 94.5 L 94 92.5 L 94.5 83 Z " /><path fill="rgb(103,100,101)" stroke="rgb(103,100,101)" stroke-width="1" opacity="1" d="M 82.5 96 L 84 101.5 L 82 102 L 82.5 96 Z " /><path fill="rgb(103,100,101)" stroke="rgb(103,100,101)" stroke-width="1" opacity="1" d="M 91.5 97 L 92 100.5 L 90 101.5 L 91.5 97 Z " /><path fill="rgb(103,100,101)" stroke="rgb(103,100,101)" stroke-width="1" opacity="1" d="M 44.5 111 L 48 112.5 L 50 118.5 L 49 118.5 L 47 112 Q 43.2 111.3 42 114.5 L 38 127 Q 40.7 128.1 40 125.5 Q 41.3 121.8 47.5 123 L 50 127 Q 52.7 128.1 52 125.5 L 50 120.5 L 51 120.5 L 53 128 L 49 126.5 L 47.5 124 Q 42.3 122.8 41 125.5 L 39.5 128 Q 35.8 129.3 37 125.5 L 42 112 L 44.5 111 Z " /><path fill="rgb(103,100,101)" stroke="rgb(103,100,101)" stroke-width="1" opacity="1" d="M 56.5 111 L 58 112.5 L 58 128 L 54 126.5 L 55 125.5 L 55 112.5 L 56.5 111 Z M 57 112 L 56 127 L 57 127 L 57 112 Z " /><path fill="rgb(103,100,101)" stroke="rgb(103,100,101)" stroke-width="1" opacity="1" d="M 63.5 111 Q 72.4 110.1 75 115.5 Q 76.7 124.2 72.5 127 L 62 128 L 62 112.5 L 63.5 111 Z M 63 112 L 63 127 Q 70 128 73 126 Q 75 123 74 116 Q 71 111 63 112 Z " /><path fill="rgb(103,100,101)" stroke="rgb(103,100,101)" stroke-width="1" opacity="1" d="M 101.5 111 L 106 112 L 109.5 120 L 110 112 L 112.5 111 L 114 112.5 L 114 128 Q 109.4 129.3 108 126.5 L 106 121.5 L 107 121.5 L 109 127 L 113 126.5 L 113 112.5 L 111 113.5 L 111 121.5 L 109.5 122 L 103.5 112 L 101 112.5 L 101 127 L 103 127.5 L 100 128 L 100 112.5 L 101.5 111 Z " /><path fill="rgb(103,100,101)" stroke="rgb(103,100,101)" stroke-width="1" opacity="1" d="M 92 112 Q 95.8 110.5 95 113.5 L 92 113.5 L 92 112 Z " /><path fill="rgb(103,100,101)" stroke="rgb(103,100,101)" stroke-width="1" opacity="1" d="M 131.5 112 L 134 113.5 Q 133.3 115.8 135.5 115 Q 139.2 117.2 134 119.5 L 134 124.5 Q 137 123.8 136 128 Q 132.2 129 131 126.5 L 129 115.5 L 131.5 112 Z M 133 113 L 130 117 L 131 121 L 133 122 Q 132 117 135 118 L 133 113 Z M 133 124 Q 130 128 135 127 L 133 124 Z " /><path fill="rgb(103,100,101)" stroke="rgb(103,100,101)" stroke-width="1" opacity="1" d="M 65 114 Q 70.5 112.8 72 116.5 Q 73.5 123.5 69.5 125 L 71 122.5 Q 72.5 115.5 69.5 116 L 66.5 115 Q 63.5 116.5 65 122.5 L 66 124.5 L 65 124.5 L 64 116.5 L 65 114 Z " /><path fill="rgb(103,100,101)" stroke="rgb(103,100,101)" stroke-width="1" opacity="1" d="M 44 115 Q 46.7 113.9 46 116.5 L 47 118.5 L 46 118.5 Q 46.7 115.9 44 117 L 43.5 119 L 43 117.5 L 44 115 Z " /><path fill="rgb(103,100,101)" stroke="rgb(103,100,101)" stroke-width="1" opacity="1" d="M 80.5 115 L 86 115.5 Q 79.7 114.7 78 118.5 Q 76.5 125.5 80.5 127 Q 86.5 128.5 88 125.5 L 88.5 124 L 89 125.5 Q 87.5 129.5 80.5 128 L 78 127 Q 76.3 124.6 77 118.5 L 78 116 L 80.5 115 Z " /><path fill="rgb(103,100,101)" stroke="rgb(103,100,101)" stroke-width="1" opacity="1" d="M 91.5 115 Q 89.9 116.8 93 118.5 L 93.5 121 L 97 116.5 L 95 115.5 L 96.5 115 L 98 118 L 95 119.5 L 95 123.5 L 98 128 Q 93.4 129.3 92 126.5 L 92.5 125 L 96.5 127 L 94 123.5 L 93.5 122 L 92 122.5 Q 92.6 117.9 90 116.5 L 91.5 115 Z " /><path fill="rgb(103,100,101)" stroke="rgb(103,100,101)" stroke-width="1" opacity="1" d="M 119.5 115 L 125 115.5 Q 118.7 114.7 117 118.5 Q 115.5 125.5 119.5 127 L 126 126.5 L 119 125 L 119 122 L 125.5 122 L 125.5 123 L 120 123.5 Q 121.6 126.5 127 125 L 127 128 L 119.5 128 L 117 127 Q 115.3 124.6 116 118.5 L 119.5 115 Z " /><path fill="rgb(103,100,101)" stroke="rgb(103,100,101)" stroke-width="1" opacity="1" d="M 87.5 116 L 89 118.5 L 88 118.5 L 87.5 116 Z " /><path fill="rgb(103,100,101)" stroke="rgb(103,100,101)" stroke-width="1" opacity="1" d="M 103.5 116 L 106 119.5 L 104 119.5 L 103.5 126 L 103.5 116 Z " /><path fill="rgb(103,100,101)" stroke="rgb(103,100,101)" stroke-width="1" opacity="1" d="M 126.5 116 Q 129 117 128 121.5 L 127 121.5 L 126.5 116 Z " /><path fill="rgb(103,100,101)" stroke="rgb(103,100,101)" stroke-width="1" opacity="1" d="M 81 117 Q 85.7 116 87 119.5 Q 88 125 84.5 126 Q 80.5 126.5 80 123.5 L 81 117 Z M 83 118 Q 80 119 81 124 L 85 125 L 86 123 L 85 120 Q 86 117 83 118 Z " /><path fill="rgb(103,100,101)" stroke="rgb(103,100,101)" stroke-width="1" opacity="1" d="M 121.5 117 L 125 118.5 L 123.5 121 Q 117.2 122.9 119 118 L 121.5 117 Z M 122 118 L 120 120 L 124 120 Q 125 117 122 118 Z " /><path fill="rgb(103,100,101)" stroke="rgb(103,100,101)" stroke-width="1" opacity="1" d="M 89.5 120 L 90 122.5 L 89 122.5 L 89.5 120 Z " /><path fill="rgb(40,37,39)" stroke="rgb(40,37,39)" stroke-width="1" opacity="1" d="M 81.5 24 L 93 24.5 L 81.5 25 L 81.5 24 Z " /><path fill="rgb(40,37,39)" stroke="rgb(40,37,39)" stroke-width="1" opacity="1" d="M 75.5 26 L 77 26.5 L 75 27.5 L 79 29 L 78.5 31 L 74.5 29 L 72 30 Q 71 34.3 74 35.5 L 72 36 L 70.5 31 Q 65 35 63.5 43 L 63 40.5 Q 66.3 31.8 73.5 27 L 75.5 26 Z " /><path fill="rgb(40,37,39)" stroke="rgb(40,37,39)" stroke-width="1" opacity="1" d="M 97.5 26 L 101 28.5 L 99.5 28 L 97.5 26 Z " /><path fill="rgb(40,37,39)" stroke="rgb(40,37,39)" stroke-width="1" opacity="1" d="M 102.5 29 L 109 37.5 L 107 36.5 L 102.5 29 Z " /><path fill="rgb(40,37,39)" stroke="rgb(40,37,39)" stroke-width="1" opacity="1" d="M 78.5 33 L 79 34.5 L 77 35.5 L 78.5 33 Z " /><path fill="rgb(40,37,39)" stroke="rgb(40,37,39)" stroke-width="1" opacity="1" d="M 71.5 37 L 73 37.5 L 68 40 L 67 42.5 L 67 62.5 L 69.5 66 L 66 62.5 L 66 42.5 L 69.5 38 L 71.5 37 Z " /><path fill="rgb(40,37,39)" stroke="rgb(40,37,39)" stroke-width="1" opacity="1" d="M 75.5 37 L 99 37.5 L 75.5 38 L 75.5 37 Z " /><path fill="rgb(40,37,39)" stroke="rgb(40,37,39)" stroke-width="1" opacity="1" d="M 100.5 37 L 102.5 37 L 107 41.5 L 107 63.5 L 102.5 68 L 106 63.5 L 106 41.5 L 102.5 38 Q 99.5 38.5 100.5 37 Z " /><path fill="rgb(40,37,39)" stroke="rgb(40,37,39)" stroke-width="1" opacity="1" d="M 74.5 42 L 98.5 42 L 102 45.5 L 102 60.5 L 99.5 63 L 101 60.5 L 101 45.5 L 98.5 43 L 74.5 43 L 73 44.5 L 72.5 46 L 72 44.5 L 74.5 42 Z " /><path fill="rgb(40,37,39)" stroke="rgb(40,37,39)" stroke-width="1" opacity="1" d="M 110.5 42 L 111 45 L 118.5 45 L 120 46.5 L 119.5 48 L 119 46 L 111.5 46 L 110 44.5 L 110.5 42 Z " /><path fill="rgb(40,37,39)" stroke="rgb(40,37,39)" stroke-width="1" opacity="1" d="M 62.5 44 L 61.5 46 Q 55.3 45.3 55 46.5 L 55 69.5 L 54 69.5 L 54 46.5 L 55.5 45 Q 61 46.5 62.5 44 Z " /><path fill="rgb(40,37,39)" stroke="rgb(40,37,39)" stroke-width="1" opacity="1" d="M 72.5 59 L 75 62.5 L 72 60.5 L 72.5 59 Z " /><path fill="rgb(40,37,39)" stroke="rgb(40,37,39)" stroke-width="1" opacity="1" d="M 110.5 65 L 114 66.5 L 115.5 70 L 118 70.5 L 115.5 71 L 113 70 Q 114.9 64.4 110 66 L 109.5 69 L 109 66.5 L 110.5 65 Z " /><path fill="rgb(40,37,39)" stroke="rgb(40,37,39)" stroke-width="1" opacity="1" d="M 71.5 67 L 72.5 68 L 101 68.5 L 72.5 69 L 71.5 67 Z " /><path fill="rgb(40,37,39)" stroke="rgb(40,37,39)" stroke-width="1" opacity="1" d="M 64.5 69 L 70 76.5 L 65 72.5 L 64.5 69 Z " /><path fill="rgb(40,37,39)" stroke="rgb(40,37,39)" stroke-width="1" opacity="1" d="M 107.5 72 L 106 74.5 Q 106.8 76.8 104.5 76 L 95 81.5 L 94.5 83 L 94 81.5 Q 96.6 77.6 102.5 77 L 107.5 72 Z " /><path fill="rgb(40,37,39)" stroke="rgb(40,37,39)" stroke-width="1" opacity="1" d="M 71.5 77 L 79 80 Q 81.1 83.3 80 91.5 L 79 91.5 L 79 82.5 L 76.5 80 Q 71.5 79.9 71.5 77 Z " /><path fill="rgb(40,37,39)" stroke="rgb(40,37,39)" stroke-width="1" opacity="1" d="M 93.5 92 L 92 94.5 L 91.5 97 L 91 93 L 93.5 92 Z " /><path fill="rgb(40,37,39)" stroke="rgb(40,37,39)" stroke-width="1" opacity="1" d="M 81.5 93 L 83 95.5 L 82 95.5 L 81.5 93 Z " /><path fill="rgb(40,37,39)" stroke="rgb(40,37,39)" stroke-width="1" opacity="1" d="M 90.5 98 L 91 100.5 Q 89.8 103.3 84.5 102 L 83.5 100 L 90 101 L 90.5 98 Z " /><path fill="rgb(40,37,39)" stroke="rgb(40,37,39)" stroke-width="1" opacity="1" d="M 44.5 112 Q 47.8 110.9 47 113.5 L 52 127 Q 49.3 128.1 50 125.5 Q 48.8 121.8 42.5 123 L 40 127 Q 37.3 128.1 38 125.5 L 42 114.5 L 44.5 112 Z M 44 115 L 43 118 Q 41 123 47 121 L 46 117 Q 47 114 44 115 Z " /><path fill="rgb(40,37,39)" stroke="rgb(40,37,39)" stroke-width="1" opacity="1" d="M 56.5 112 L 57 126.5 L 56 126.5 L 56.5 112 Z " /><path fill="rgb(40,37,39)" stroke="rgb(40,37,39)" stroke-width="1" opacity="1" d="M 63 112 Q 70.8 110.8 74 115.5 Q 75 123 73 126 Q 69.9 128 63 127 L 63 112 Z M 65 114 L 64 117 Q 63 122 65 124 Q 64 127 70 125 Q 73 124 72 117 Q 71 113 65 114 Z " /><path fill="rgb(40,37,39)" stroke="rgb(40,37,39)" stroke-width="1" opacity="1" d="M 101 112 Q 104.8 111.3 106 114.5 L 109.5 122 L 111 121.5 L 111 113.5 L 113 112.5 L 113 126.5 L 109 127 L 106 118.5 L 103.5 116 L 103 127 L 101 126.5 L 101 112 Z " /><path fill="rgb(40,37,39)" stroke="rgb(40,37,39)" stroke-width="1" opacity="1" d="M 93.5 113 L 95 116 L 97 116.5 L 93.5 121 L 91 116.5 L 93.5 113 Z " /><path fill="rgb(40,37,39)" stroke="rgb(40,37,39)" stroke-width="1" opacity="1" d="M 132.5 113 L 135 118 Q 131.7 116.7 133 121.5 L 131 120.5 L 130 116.5 L 132.5 113 Z " /><path fill="rgb(40,37,39)" stroke="rgb(40,37,39)" stroke-width="1" opacity="1" d="M 80.5 116 Q 86.5 114.5 88 117.5 L 89 123.5 L 86.5 127 Q 79.5 128.5 78 124.5 Q 76.5 117.5 80.5 116 Z M 81 117 L 80 124 Q 80 127 85 126 Q 88 125 87 120 Q 86 116 81 117 Z " /><path fill="rgb(40,37,39)" stroke="rgb(40,37,39)" stroke-width="1" opacity="1" d="M 119.5 116 Q 126.5 114.5 126 117.5 L 127 122 L 119 122 L 119 125 L 126 126.5 L 119.5 127 Q 115.5 125.5 117 118.5 L 119.5 116 Z M 122 117 L 119 118 Q 117 123 124 121 L 125 119 L 122 117 Z " /><path fill="rgb(40,37,39)" stroke="rgb(40,37,39)" stroke-width="1" opacity="1" d="M 93.5 122 L 97 126.5 L 94.5 127 L 92 123.5 L 93.5 122 Z " /><path fill="rgb(40,37,39)" stroke="rgb(40,37,39)" stroke-width="1" opacity="1" d="M 132.5 124 L 134.5 127 Q 130.1 128.1 132.5 124 Z " /><path fill="rgb(230,227,226)" stroke="rgb(230,227,226)" stroke-width="1" opacity="1" d="M 95.5 110 L 96.5 112 L 95.5 110 Z " /><path fill="rgb(230,227,226)" stroke="rgb(230,227,226)" stroke-width="1" opacity="1" d="M 115.5 111 L 116 114.5 L 115 114.5 L 115.5 111 Z " /><path fill="rgb(230,227,226)" stroke="rgb(230,227,226)" stroke-width="1" opacity="1" d="M 49.5 113 L 50.5 115 L 49.5 113 Z " /><path fill="rgb(230,227,226)" stroke="rgb(230,227,226)" stroke-width="1" opacity="1" d="M 66 117 L 68 117 L 68 122 L 66 122 L 66 117 Z " /><path fill="rgb(230,227,226)" stroke="rgb(230,227,226)" stroke-width="1" opacity="1" d="M 138.5 126 L 139 127.5 L 137 128.5 L 138.5 126 Z " /><path fill="rgb(230,227,226)" stroke="rgb(230,227,226)" stroke-width="1" opacity="1" d="M 42.5 127 L 41.5 129 L 42.5 127 Z " /><path fill="rgb(231,229,227)" stroke="rgb(231,229,227)" stroke-width="1" opacity="1" d="M 0 0 L 32 0.5 L 29 1 L 28 5.5 L 29 5.5 L 29.5 4 L 30.5 6 L 32 5.5 L 32.5 8 L 35 6.5 L 31.5 10 L 30.5 9 L 27.5 10 L 28 8.5 L 27.5 6 Q 24.5 6.5 25 10.5 L 25 12.5 Q 23.3 18.8 26 20.5 L 25.5 23 L 24 23.5 L 25 26 L 28 27.5 L 26.5 31 L 25 31.5 L 25 38.5 L 27 41.5 L 26 44.5 Q 29.3 45.8 28 51.5 Q 24 53.5 28 55.5 L 25 61.5 L 25.5 63 L 24 63.5 Q 26.5 65 23 66.5 L 21 69.5 L 19 73 Q 16.3 71.9 17 74.5 L 15.5 74 L 12 71.5 L 11 65.5 L 12 61.5 L 11 61.5 L 1 80.5 L 3 84.5 Q -0.5 86 2 87.5 L 1 91 L 12.5 84 L 16.5 83 L 19 85.5 L 15.5 89 L 5 95.5 L 12.5 99 L 19.5 93 L 24 92 Q 24.8 87.5 22 85.5 L 23 82 L 30.5 79 L 29.5 81 Q 26.5 80.1 28 84.5 Q 31.7 87.6 32 93 L 34 93 Q 32.9 95.7 35.5 95 L 45.5 103 L 49 104 L 49.5 106 Q 51 103.5 52.5 107 L 58 108.5 Q 53.3 108.3 52 111.5 L 51.5 116 L 47.5 109 Q 41.3 107.8 40 111.5 L 34 127.5 Q 35.5 130.5 41.5 129 Q 42.8 125.2 47 126 L 47.5 129 L 73.5 129 Q 75.5 125 77.5 129 L 85.5 130 L 90.5 128 L 100.5 133 L 102 130.5 L 101.5 129 L 112.5 135 L 112 133.5 Q 112.8 131.3 110.5 132 L 108.5 129 L 120 129.5 L 116 132.5 L 114.5 135 L 113 135.5 L 115.5 136 L 127 129 Q 125.7 132.3 130.5 131 Q 131.8 128.8 136.5 130 L 139 127.5 L 138 123.5 L 141 119.5 L 139 115.5 L 143.5 112 L 144 114.5 Q 142.9 117.8 145.5 117 L 153.5 128 L 171 117.5 L 170 114.5 L 174 114 L 174 162.5 L 173.5 163 L 0 163 L 0 65.5 L 3 61.5 L 4 56.5 Q 9.2 50.4 11 42 L 16 44 Q 14.3 40.6 15 33.5 L 12 24.5 L 15 21.5 L 14 20.5 L 7.5 10 L 0 3.5 L 0 0 Z M 17 53 L 15 56 L 15 60 L 16 64 L 15 67 L 17 67 L 20 63 L 19 61 Q 18 56 20 55 Q 21 52 17 53 Z M 121 139 L 118 140 L 117 143 L 121 143 L 121 141 L 121 139 Z M 93 145 L 92 148 L 93 148 L 93 145 Z M 124 149 L 123 152 L 128 153 L 129 150 L 124 149 Z M 125 154 L 124 156 L 127 156 L 125 154 Z " /><path fill="rgb(231,229,227)" stroke="rgb(231,229,227)" stroke-width="1" opacity="1" d="M 36 0 L 38 0.5 L 36 1.5 L 36 0 Z " /><path fill="rgb(231,229,227)" stroke="rgb(231,229,227)" stroke-width="1" opacity="1" d="M 45.5 0 L 59.5 0 L 60 2 L 46.5 7 Q 44 5.8 45 2 L 47 1.5 L 45.5 0 Z " /><path fill="rgb(231,229,227)" stroke="rgb(231,229,227)" stroke-width="1" opacity="1" d="M 61.5 0 L 69.5 0 L 70.5 1 Q 72 -1.5 77.5 0 L 81.5 0 L 84 0.5 L 80.5 2 L 78.5 2 L 77 2.5 L 82 5.5 L 80.5 5 L 75 6.5 Q 76.3 9.3 77.5 7 L 80 8.5 L 78 9 L 77.5 12 L 76.5 10 L 75.5 12 L 73.5 12 Q 69.8 11 71 14 L 73 14.5 L 71.5 17 L 74.5 16 L 78 18.5 L 77 14.5 L 78.5 15 L 81.5 15 L 85 13 L 85.5 11 L 87.5 15 L 90 14.5 L 90.5 12 L 92.5 15 L 94.5 13 L 102.5 12 L 111.5 8 L 118.5 16 L 128 21.5 L 127 25.5 L 130 27 L 130 43.5 L 132 45.5 L 131 48.5 Q 133.8 50.5 133 55 L 141 55 L 141 57.5 L 143 60.5 L 143 72.5 L 142 77 L 134.5 77 L 133 78.5 L 133 82.5 L 131 87.5 Q 133.7 89.8 133 95.5 L 140 108.5 L 137.5 112 L 132.5 109 L 128 112.5 L 127.5 114 L 120.5 112 L 117.5 114 L 116 110 L 110.5 109 L 107.5 111 Q 106.2 107.8 100.5 109 L 97.5 111 L 93.5 109 L 89.5 111 L 84.5 105 Q 90.6 105.8 93 104 L 94 96 L 97 94.5 L 97 83.5 L 99.5 81 Q 107.9 80.4 111 74.5 Q 110.2 71.9 113.5 73 L 118.5 74 L 122 73 L 122 44.5 L 120.5 43 L 114.5 42 L 112 39.5 L 111 33.5 L 108 29 L 93.5 21 L 79.5 21 L 71.5 25 L 70.5 23 Q 74.3 23.8 75 21.5 L 72.5 20 L 70 21.5 Q 70.8 19.3 68.5 20 L 66 21 Q 65.1 15.6 69 13.5 Q 67.8 10.8 66.5 13 Q 60.7 13.7 58 17.5 L 55.5 21 Q 51.7 18.7 57 16.5 Q 57.8 14.3 55.5 15 L 50 18.5 L 50 25.5 L 54 34.5 L 51 32.5 Q 47.1 28 48 20 Q 42.8 21.7 44 18 L 49 17 L 50.5 14 L 59.5 13 Q 61 15.5 62.5 12 L 68 10 L 67.5 8 L 65 9 L 64 4.5 L 68 2.5 Q 66.8 -0.3 65.5 2 Q 60.7 2.1 61.5 0 Z M 71 2 L 70 5 L 69 4 L 65 6 L 67 8 L 67 6 L 71 7 Q 72 3 74 6 L 76 5 Q 78 6 77 4 L 75 3 L 71 4 L 71 2 Z " /><path fill="rgb(231,229,227)" stroke="rgb(231,229,227)" stroke-width="1" opacity="1" d="M 31.5 2 L 35 3.5 L 33.5 3 Q 30.5 3.5 31.5 2 Z " /><path fill="rgb(231,229,227)" stroke="rgb(231,229,227)" stroke-width="1" opacity="1" d="M 101.5 2 L 106 2.5 L 101.5 3 L 101.5 2 Z " /><path fill="rgb(231,229,227)" stroke="rgb(231,229,227)" stroke-width="1" opacity="1" d="M 103 6 L 105 6.5 L 103 7.5 L 103 6 Z " /><path fill="rgb(231,229,227)" stroke="rgb(231,229,227)" stroke-width="1" opacity="1" d="M 89.5 7 L 89.5 9 Q 91.8 8.3 91 10.5 L 89 10.5 L 88.5 12 L 87 9.5 L 89.5 7 Z " /><path fill="rgb(231,229,227)" stroke="rgb(231,229,227)" stroke-width="1" opacity="1" d="M 100.5 8 L 102 8.5 L 100 9 L 99.5 11 L 99 9.5 L 100.5 8 Z " /><path fill="rgb(231,229,227)" stroke="rgb(231,229,227)" stroke-width="1" opacity="1" d="M 96.5 10 L 97.5 12 Q 94.7 12.7 96.5 10 Z " /><path fill="rgb(231,229,227)" stroke="rgb(231,229,227)" stroke-width="1" opacity="1" d="M 27.5 11 L 29 13.5 L 28 16 Q 30.7 14.9 30 17.5 L 31 20 L 28.5 21 L 27.5 19 L 29 18.5 L 28 16 Q 25 17.3 26 13.5 L 27.5 11 Z " /><path fill="rgb(231,229,227)" stroke="rgb(231,229,227)" stroke-width="1" opacity="1" d="M 92.5 11 L 95 11.5 L 92.5 12 L 92.5 11 Z " /><path fill="rgb(231,229,227)" stroke="rgb(231,229,227)" stroke-width="1" opacity="1" d="M 35 13 L 37 13.5 L 33 16.5 Q 32.3 13.9 35 15 L 35 13 Z " /><path fill="rgb(231,229,227)" stroke="rgb(231,229,227)" stroke-width="1" opacity="1" d="M 74.5 13 L 75.5 15 Q 72.7 15.7 74.5 13 Z " /><path fill="rgb(231,229,227)" stroke="rgb(231,229,227)" stroke-width="1" opacity="1" d="M 29.5 22 L 30 24.5 L 29 24.5 L 29.5 22 Z " /><path fill="rgb(231,229,227)" stroke="rgb(231,229,227)" stroke-width="1" opacity="1" d="M 61.5 35 L 62 37.5 L 59.5 42 Q 53.3 40.8 52 44.5 L 50 47.5 L 51 48.5 L 51 63.5 L 49 62.5 Q 51.5 59 50 51.5 L 46 48.5 Q 49.6 46.6 50 41.5 L 49 39.5 L 50 37 L 54.5 36 L 59.5 37 L 61.5 35 Z " /><path fill="rgb(231,229,227)" stroke="rgb(231,229,227)" stroke-width="1" opacity="1" d="M 50.5 66 L 52 70.5 L 50.5 73 L 50.5 66 Z " /><path fill="rgb(231,229,227)" stroke="rgb(231,229,227)" stroke-width="1" opacity="1" d="M 54.5 74 L 60 74 L 60 76.5 L 61 80 L 68 83.5 L 69 92.5 L 68 94.5 L 70 98 L 72.5 99 L 75 90.5 L 71 81.5 L 73.5 81 L 76 83.5 Q 75.3 91.5 77 96 Q 81 94.6 79 101.5 Q 82.5 103 80 104.5 Q 78.9 107.8 81.5 107 L 88 111.5 L 86 112.5 L 85.5 111 L 84.5 113 L 78.5 108 L 77 110.5 Q 80.8 112.3 77.5 114 Q 75.3 114.8 76 112.5 L 70 108.5 L 71.5 109 Q 73.8 109.8 73 107.5 L 69.5 104 L 63 103 L 60 98.5 L 60 96 L 63 97.5 Q 62.5 101.5 65.5 102 L 70.5 103 L 71 101.5 L 61 86.5 L 60 81 L 54 77.5 L 53 75.5 L 54.5 74 Z M 56 75 L 56 77 Q 58 80 59 77 L 56 75 Z M 63 83 Q 62 87 65 86 L 66 90 L 67 90 L 66 85 L 63 83 Z " /><path fill="rgb(231,229,227)" stroke="rgb(231,229,227)" stroke-width="1" opacity="1" d="M 68.5 118 L 69 121.5 L 68 121.5 L 68.5 118 Z " /></svg>